# xmcd
#
# Track frame offsets: 
#        150
#        18324
#        34831
#        51728
#        67968
#        84666
#        102412
#        115935
#        131512
#        152995
#        170801
#        188864
#        205857
#        219794
#
# Disc length: 3145 seconds
#
# Revision: 0
# Processed by: cddbd v1.5.2PL0 Copyright (c) Steve Scherf et al.
# Submitted via: ExactAudioCopy v1.1
#
DISCID=c90c470e
DTITLE=Various Artist - Tone-Cool Presents The Best Of The Blues
DYEAR=2007
DGENRE=Blues
TTITLE0=Jimmie Vaughan - Power Of Love
TTITLE1=Hubert Sunlin - This Is The End Little Girl
TTITLE2=Susan Tedeschi - In The Garden
TTITLE3=The Fabulous Thunderbirds - You Torture Me
TTITLE4=North Mississippi Allstars - Snakes In The Bushes
TTITLE5=Bernard Allison - I Think I Love You Too Much
TTITLE6=Sean Costello - Big Road Blues
TTITLE7=Taj Mahal - All Along The Watchtower
TTITLE8=The Love Dogs - Just Good Lovin'
TTITLE9=Alvin Youngblood Hart - Motivational Speaker
TTITLE10=Bob Piazza and His Mighty Flyers - Shakin' Hands With The Blues
TTITLE11=Rick Holstrom - Shake It Pt. 2
TTITLE12=Toni Lynn Washington - Alright OK, You WIn
TTITLE13=Paul Rishell - Keep Your Hands Off Her
EXTD=
EXTT0=
EXTT1=
EXTT2=
EXTT3=
EXTT4=
EXTT5=
EXTT6=
EXTT7=
EXTT8=
EXTT9=
EXTT10=
EXTT11=
EXTT12=
EXTT13=
PLAYORDER=
